# xmcd
#
# Track frame offsets: 
#        150
#        15657
#        33090
#        51990
#        67957
#        83604
#        96992
#        110480
#        125415
#        143967
#
# Disc length: 2178 seconds
#
# Revision: 2
# Processed by: cddbd v1.5.1PL0 Copyright (c) Steve Scherf et al.
# Submitted via: ExactAudioCopy v0.95b1
#
DISCID=7f08800a
DTITLE=Jeff Wood - Between The Earth And The Stars
DYEAR=1997
DGENRE=Country
TTITLE0=You Call That A Mountain
TTITLE1=Too Late To Turn It Around
TTITLE2=There's No Place Like You
TTITLE3=Long Way From OK
TTITLE4=Time To Move On
TTITLE5=You Just Get One
TTITLE6=Sure Thing
TTITLE7=I Want It All
TTITLE8=Use Mine
TTITLE9=Between The Earth And The Stars
EXTD=
EXTT0=
EXTT1=
EXTT2=
EXTT3=
EXTT4=
EXTT5=
EXTT6=
EXTT7=
EXTT8=
EXTT9=
PLAYORDER=
